# xmcd
#
# Track frame offsets: 
#        150
#        26761
#        49720
#        73192
#        116783
#        143377
#        169546
#        202184
#        234390
#        271371
#
# Disc length: 4033 seconds
#
# Revision: 0
# Processed by: cddbd v1.5.2PL0 Copyright (c) Steve Scherf et al.
# Submitted via: ExactAudioCopy v0.99pb4
#
DISCID=8e0fbf0a
DTITLE=Big Al Carson and The Blues Masters - Cuttin' Up With Big Al an
DTITLE=d The Blues Masters (Vol. III)
DYEAR=2004
DGENRE=Blues
TTITLE0=Cross Roads
TTITLE1=Down Home Blues
TTITLE2=Champagne and Reefer
TTITLE3=Lets Stay Together
TTITLE4=House Of The Rising Sun
TTITLE5=Dip My Dipper
TTITLE6=Nursery Rhymes
TTITLE7=Fix My Nuts
TTITLE8=King Bee
TTITLE9=Bring It On Home To Me
EXTD=
EXTT0=
EXTT1=
EXTT2=
EXTT3=
EXTT4=
EXTT5=
EXTT6=
EXTT7=
EXTT8=
EXTT9=
PLAYORDER=
